<svg xmlns="http://www.w3.org/2000/svg" viewBox="0 0 512 512">
  <defs>
    <linearGradient id="wineGradient" x1="0%" y1="0%" x2="100%" y2="100%">
      <stop offset="0%" stop-color="#7b2433" />
      <stop offset="100%" stop-color="#54131e" />
    </linearGradient>
    <linearGradient id="brassGradient" x1="0%" y1="0%" x2="0%" y2="100%">
      <stop offset="0%" stop-color="#c69a5d" />
      <stop offset="100%" stop-color="#9f7237" />
    </linearGradient>
  </defs>

  <rect x="16" y="16" width="480" height="480" rx="112" fill="#f7efe1" />
  <rect x="28" y="28" width="456" height="456" rx="100" fill="none" stroke="url(#wineGradient)" stroke-width="20" />

  <circle cx="256" cy="256" r="142" fill="#2b211c" />
  <circle cx="256" cy="256" r="118" fill="none" stroke="#f7efe1" stroke-width="8" opacity="0.85" />

  <rect x="192" y="172" width="14" height="168" rx="7" fill="url(#brassGradient)" />
  <rect x="176" y="150" width="8" height="70" rx="4" fill="url(#brassGradient)" />
  <rect x="188" y="150" width="8" height="70" rx="4" fill="url(#brassGradient)" />
  <rect x="200" y="150" width="8" height="70" rx="4" fill="url(#brassGradient)" />
  <rect x="212" y="150" width="8" height="70" rx="4" fill="url(#brassGradient)" />

  <rect x="306" y="172" width="14" height="168" rx="7" fill="url(#brassGradient)" />
  <path d="M286 150C286 127 304 112 327 112C350 112 368 127 368 150V190H286V150Z" fill="url(#brassGradient)" />

  <circle cx="256" cy="372" r="10" fill="#f7efe1" opacity="0.9" />
</svg>